Coordinates
version=1
nRows=26
nColumns=22
inDegrees=yes

Units are S.I. units (second, meters, Newtons, ...)
If the header above contains a line with 'inDegrees', this indicates whether rotational values are in degrees (yes) or radians (no).

endheader
time	pelvis_tilt	pelvis_list	pelvis_rotation	pelvis_tx	pelvis_ty	pelvis_tz	hip_flexion_r	hip_adduction_r	hip_rotation_r	knee_angle_r	ankle_angle_r	subtalar_angle_r	hip_flexion_l	hip_adduction_l	hip_rotation_l	knee_angle_l	ankle_angle_l	subtalar_angle_l	lumbar_extension	lumbar_bending	lumbar_rotation
      0.01000000	     -1.23924716	      1.03006391	    174.08013220	      0.07080255	      1.08778540	      1.17092126	     -4.36301183	      2.49042559	      0.10313791	     -6.96843534	     10.69804405	     -3.58765878	     -3.03248684	      0.28051774	     -1.61295926	    -10.07756053	     12.46721436	     -3.07721415	     -2.72522223	     -1.85248054	     -6.66425782
      0.02000000	     -1.24422212	      1.02980800	    174.08996953	      0.07079918	      1.08778767	      1.17089949	     -4.36694303	      2.49114768	      0.10782059	     -6.97247092	     10.69748121	     -3.58616340	     -3.03520241	      0.27875884	     -1.61161071	    -10.07909592	     12.46600115	     -3.07756613	     -2.71510488	     -1.85338258	     -6.66240209
      0.03000000	     -1.24968165	      1.03009989	    174.09552379	      0.07081616	      1.08779435	      1.17086184	     -4.37240428	      2.49426469	      0.10970689	     -6.97476600	     10.69771226	     -3.58520485	     -3.03723217	      0.27705708	     -1.60860691	    -10.08349494	     12.46519308	     -3.07780208	     -2.70460039	     -1.85564671	     -6.65959010
      0.04000000	     -1.25306056	      1.03571681	    174.13310762	      0.07084089	      1.08779484	      1.17088824	     -4.39131178	      2.50381782	      0.10250978	     -6.94698569	     10.70009747	     -3.55246267	     -3.02931066	      0.26797911	     -1.56512815	    -10.09372427	     12.43353755	     -3.10276230	     -2.69693667	     -1.85099473	     -6.67680664
      0.05000000	     -1.26028991	      1.03544134	    174.13917951	      0.07080939	      1.08780285	      1.17085483	     -4.39885133	      2.50514354	      0.10265541	     -6.95385098	     10.70030953	     -3.55177534	     -3.03446836	      0.26673987	     -1.56370070	    -10.10117308	     12.43317998	     -3.10374361	     -2.68127571	     -1.85234161	     -6.67381727
      0.06000000	     -1.26754321	      1.03395765	    174.15051773	      0.07082595	      1.08781235	      1.17082447	     -4.40313156	      2.50706289	      0.10290778	     -6.95978127	     10.70146404	     -3.55121244	     -3.03997313	      0.26560406	     -1.56233590	    -10.10519436	     12.43597033	     -3.10388141	     -2.66743509	     -1.85505731	     -6.66945570
      0.07000000	     -1.27676595	      1.02424248	    174.17566003	      0.07083984	      1.08781082	      1.17081663	     -4.39939336	      2.49956654	      0.05212078	     -6.98252442	     10.72325409	     -3.53492045	     -3.04330524	      0.27312393	     -1.52837071	    -10.11154613	     12.47235209	     -3.10407715	     -2.65670683	     -1.86836121	     -6.66777091
      0.08000000	     -1.28342577	      1.02308799	    174.18225319	      0.07083716	      1.08781218	      1.17078460	     -4.40587195	      2.50049290	      0.05378722	     -6.98626205	     10.72261138	     -3.53451674	     -3.04793690	      0.27217384	     -1.52837870	    -10.11574540	     12.47127059	     -3.10370798	     -2.64128172	     -1.86985387	     -6.66712004
      0.09000000	     -1.28947314	      1.02102485	    174.18863478	      0.07084438	      1.08782482	      1.17073955	     -4.41153512	      2.50120544	      0.05381284	     -6.98847529	     10.72127564	     -3.53347965	     -3.05048624	      0.27051091	     -1.52730375	    -10.11855935	     12.47102097	     -3.10312764	     -2.62822182	     -1.87464510	     -6.66588712
      0.10000000	     -1.29060972	      1.01528064	    174.20244642	      0.07083906	      1.08784048	      1.17070710	     -4.42595212	      2.49816429	      0.03751611	     -6.96265345	     10.72434284	     -3.52927735	     -3.05495933	      0.27288612	     -1.51406560	    -10.11030331	     12.46396594	     -3.09664274	     -2.60178059	     -1.88253187	     -6.64942445
      0.11000000	     -1.30589593	      1.01552736	    174.23622374	      0.07085737	      1.08785266	      1.17071291	     -4.44436472	      2.50128916	     -0.00110034	     -6.95924930	     10.71936393	     -3.52406663	     -3.05278537	      0.26968775	     -1.49481792	    -10.13396032	     12.43475180	     -3.10536257	     -2.59771013	     -1.88547522	     -6.67437719
      0.12000000	     -1.31131506	      1.01444626	    174.23618780	      0.07088483	      1.08786737	      1.17066016	     -4.44827545	      2.50168337	     -0.00291191	     -6.96052745	     10.71897587	     -3.52285854	     -3.05857887	      0.26855259	     -1.49308427	    -10.13566232	     12.43721237	     -3.10501059	     -2.58300423	     -1.88650379	     -6.67203931
      0.13000000	     -1.30735014	      1.01358796	    174.24681726	      0.07087906	      1.08786176	      1.17061619	     -4.45279682	      2.50517024	     -0.02342947	     -6.94401615	     10.72072351	     -3.51130076	     -3.06756697	      0.26571652	     -1.49285794	    -10.10324462	     12.43242934	     -3.10559487	     -2.55157767	     -1.88687264	     -6.66163341
      0.14000000	     -1.31182882	      1.01281977	    174.25075077	      0.07087338	      1.08785955	      1.17060337	     -4.46163907	      2.50474557	     -0.02855927	     -6.93761282	     10.72522012	     -3.50701648	     -3.06670931	      0.26708636	     -1.46062831	    -10.11966715	     12.44609256	     -3.10060189	     -2.53261808	     -1.88366650	     -6.64665747
      0.15000000	     -1.30046395	      0.99808795	    174.27260972	      0.07092184	      1.08782079	      1.17078713	     -4.44341467	      2.48105596	     -0.04342719	     -6.94540351	     10.73502891	     -3.50411018	     -3.07421272	      0.28273502	     -1.47810631	    -10.06946709	     12.44536039	     -3.09434529	     -2.50595628	     -1.87483767	     -6.68111703
      0.16000000	     -1.28970136	      0.98233887	    174.28239534	      0.07096681	      1.08780278	      1.17077708	     -4.44120154	      2.47228012	     -0.01243028	     -6.92407623	     10.69237042	     -3.50188351	     -3.04384798	      0.29772959	     -1.46716800	    -10.09511602	     12.43438062	     -3.08587712	     -2.47991434	     -1.88760821	     -6.68556602
      0.17000000	     -1.27615082	      0.98793518	    174.29473091	      0.07097813	      1.08777432	      1.17077549	     -4.41224033	      2.47588903	     -0.10437071	     -6.94639753	     10.74110723	     -3.47427301	     -3.03029131	      0.28898138	     -1.45602150	    -10.08975606	     12.44374867	     -3.07283725	     -2.44614044	     -1.87594500	     -6.69593951
      0.18000000	     -1.27980877	      0.98629096	    174.29562603	      0.07098285	      1.08777045	      1.17074120	     -4.41619406	      2.47544895	     -0.10402457	     -6.94735631	     10.74066907	     -3.47351812	     -3.03290045	      0.28762756	     -1.45529757	    -10.09192315	     12.44426381	     -3.07297637	     -2.43561254	     -1.87561613	     -6.69657817
      0.19000000	     -1.27822173	      0.98565898	    174.29897492	      0.07096210	      1.08776549	      1.17072037	     -4.42737479	      2.47630031	     -0.11237644	     -6.92180189	     10.74177962	     -3.47091002	     -3.02995271	      0.28696900	     -1.45852363	    -10.09098515	     12.42777333	     -3.07835650	     -2.41052645	     -1.87697354	     -6.69284232
      0.20000000	     -1.28191506	      0.98083920	    174.30714459	      0.07100099	      1.08776816	      1.17070629	     -4.43024028	      2.47849692	     -0.06927133	     -6.92741653	     10.71451935	     -3.47511110	     -3.02040113	      0.29060562	     -1.46265086	    -10.10841277	     12.42304935	     -3.08335636	     -2.40260457	     -1.88108009	     -6.71922163
      0.21000000	     -1.27867543	      0.98660185	    174.29402133	      0.07099351	      1.08775994	      1.17070095	     -4.43329529	      2.47696874	     -0.11072842	     -6.90871051	     10.73155287	     -3.47246037	     -3.02022481	      0.28556725	     -1.47040663	    -10.10671035	     12.42344508	     -3.08750830	     -2.37982960	     -1.86413163	     -6.70379682
      0.22000000	     -1.28345086	      0.98650728	    174.28938631	      0.07101549	      1.08775498	      1.17067207	     -4.43510089	      2.47783734	     -0.11211358	     -6.91096335	     10.73292670	     -3.47169415	     -3.02312074	      0.28530074	     -1.46852186	    -10.11014715	     12.42389124	     -3.08812462	     -2.36960590	     -1.86397938	     -6.70482071
      0.23000000	     -1.27695059	      0.99325231	    174.27797713	      0.07104371	      1.08773184	      1.17065827	     -4.43172845	      2.48264222	     -0.13661062	     -6.90188068	     10.76807018	     -3.47803221	     -3.01954516	      0.27864018	     -1.47315598	    -10.10281044	     12.43084561	     -3.09447637	     -2.34245831	     -1.84517534	     -6.70998214
      0.24000000	     -1.28678528	      0.99219596	    174.27280650	      0.07101202	      1.08772572	      1.17063005	     -4.43461737	      2.48152182	     -0.11974719	     -6.91840054	     10.77497686	     -3.48307732	     -3.03100231	      0.28070078	     -1.47390807	    -10.11208928	     12.43588638	     -3.10061680	     -2.32008149	     -1.83863306	     -6.72588329
      0.25000000	     -1.29300490	      0.99180624	    174.27510140	      0.07100549	      1.08771794	      1.17063383	     -4.44083126	      2.48198564	     -0.11835461	     -6.92401873	     10.77296526	     -3.48234790	     -3.03584411	      0.28208552	     -1.47199495	    -10.11716944	     12.43884057	     -3.10059023	     -2.30555265	     -1.83782467	     -6.72476726
      0.26000000	     -1.30079343	      0.99040902	    174.27734673	      0.07101542	      1.08770247	      1.17061617	     -4.44655421	      2.48225754	     -0.11623114	     -6.92877497	     10.77105971	     -3.48166110	     -3.03842810	      0.28387557	     -1.47138951	    -10.12166299	     12.43991563	     -3.10120227	     -2.29310436	     -1.83610141	     -6.72396990
